Mesh.MshFileVersion = 2.2;
lc=4;
Point(1) = { 8.65, 0.0, 2.53, lc };
Point(2) = { 4.85, 0.0, 2.53, lc };
Point(3) = { 4.85, 0.0, 1.0, lc };
Point(4) = { 6.3, 0.0, 1.0, lc };
Point(5) = { 6.3, 0.0, 2.151097, lc };
Point(6) = { 7.24, 0.0, 2.151097, lc };
Point(7) = { 7.24, 0.0, 1.0, lc };
Point(8) = { 8.65, 0.0, 1.0, lc };
Point(9) = { 11.85, 0.0, 2.53, lc };
Point(10) = { 11.85, 0.0, 1.0, lc };
Point(11) = { 13.4, 0.0, 1.0, lc };
Point(12) = { 13.4, 0.0, 2.151097, lc };
Point(13) = { 14.34, 0.0, 2.151097, lc };
Point(14) = { 14.34, 0.0, 1.0, lc };
Point(15) = { 15.35, 0.0, 1.0, lc };
Point(16) = { 15.35, 0.0, 2.53, lc };
Point(17) = { 0.0, 0.0, 0.0, lc };
Point(18) = { 1.65, 0.0, 0.0, lc };
Point(19) = { 1.65, 0.0, 1.0, lc };
Point(20) = { 0.0, 0.0, 1.0, lc };
Point(21) = { 14.366899, 9.875, 0.0, lc };
Point(22) = { 14.466899, 9.875, 0.0, lc };
Point(23) = { 14.466899, 9.875, 1.8, lc };
Point(24) = { 14.466899, 9.875, 2.53, lc };
Point(25) = { 14.366899, 9.875, 2.53, lc };
Point(26) = { 18.25, 0.0, 2.53, lc };
Point(27) = { 18.25, 0.0, 1.0, lc };
Point(28) = { 18.25, 5.3, 1.0, lc };
Point(29) = { 18.25, 5.3, 2.384386, lc };
Point(30) = { 18.25, 5.3, 2.53, lc };
Point(31) = { 11.85, 0.0, 0.0, lc };
Point(32) = { 15.35, 0.0, 0.0, lc };
Point(33) = { 8.65, 0.0, 0.0, lc };
Point(34) = { 4.85, 0.0, 0.0, lc };
Point(35) = { 1.65, 0.0, 2.53, lc };
Point(36) = { 16.8, 6.089, 1.8, lc };
Point(37) = { 15.6, 6.089, 1.8, lc };
Point(38) = { 15.6, 6.089, 0.0, lc };
Point(39) = { 16.8, 6.089, 0.0, lc };
Point(40) = { 16.2, 5.489, 0.0, lc };
Point(41) = { 15.6, 5.489, 0.0, lc };
Point(42) = { 15.6, 5.489, 1.8, lc };
Point(43) = { 16.2, 5.489, 1.8, lc };
Point(44) = { 16.8, 5.489, 1.8, lc };
Point(45) = { 0.0, 1.15, 1.0, lc };
Point(46) = { 0.0, 1.15, 2.2, lc };
Point(47) = { 0.0, 2.05, 2.2, lc };
Point(48) = { 0.0, 2.05, 1.0, lc };
Point(49) = { 10.216899, 11.4, 1.0, lc };
Point(50) = { 8.749634, 11.4, 1.0, lc };
Point(51) = { 8.749634, 11.4, 2.53, lc };
Point(52) = { 14.366899, 11.4, 2.53, lc };
Point(53) = { 14.366899, 11.4, 1.0, lc };
Point(54) = { 13.606899, 11.4, 1.0, lc };
Point(55) = { 13.606899, 11.4, 2.151097, lc };
Point(56) = { 12.666899, 11.4, 2.151097, lc };
Point(57) = { 12.666899, 11.4, 1.0, lc };
Point(58) = { 11.156899, 11.4, 1.0, lc };
Point(59) = { 11.156899, 11.4, 2.151097, lc };
Point(60) = { 10.216899, 11.4, 2.151097, lc };
Point(61) = { 14.466899, 6.2, 2.53, lc };
Point(62) = { 14.466899, 6.2, 0.0, lc };
Point(63) = { 14.366899, 6.2, 0.0, lc };
Point(64) = { 14.366899, 6.2, 2.53, lc };
Point(65) = { 17.05, 5.3, 2.53, lc };
Point(66) = { 17.05, 5.3, 0.0, lc };
Point(67) = { 17.05, 6.4, 0.0, lc };
Point(68) = { 17.05, 6.4, 2.53, lc };
Point(69) = { 17.406899, 11.4, 2.151097, lc };
Point(70) = { 17.406899, 11.4, 1.0, lc };
Point(71) = { 16.466899, 11.4, 1.0, lc };
Point(72) = { 16.466899, 11.4, 2.151097, lc };
Point(73) = { 16.8, 5.489, 0.0, lc };
Point(74) = { 2.366899, 4.6, 2.53, lc };
Point(75) = { 2.366899, 4.6, 1.0, lc };
Point(76) = { 0.0, 4.6, 1.0, lc };
Point(77) = { 0.0, 4.6, 2.2, lc };
Point(78) = { 0.0, 4.6, 2.53, lc };
Point(79) = { 7.749634, 11.4, 0.0, lc };
Point(80) = { 5.566899, 11.4, 0.0, lc };
Point(81) = { 5.566899, 11.4, 0.951097, lc };
Point(82) = { 5.566899, 11.4, 1.0, lc };
Point(83) = { 7.749634, 11.4, 1.0, lc };
Point(84) = { 0.0, 3.7, 1.0, lc };
Point(85) = { 0.0, 4.6, 0.0, lc };
Point(86) = { 15.466899, 11.4, 0.0, lc };
Point(87) = { 15.366899, 11.4, 0.0, lc };
Point(88) = { 15.366899, 11.4, 2.53, lc };
Point(89) = { 18.25, 11.4, 2.53, lc };
Point(90) = { 18.25, 11.4, 0.9, lc };
Point(91) = { 17.6, 11.4, 0.9, lc };
Point(92) = { 17.6, 11.4, 0.0, lc };
Point(93) = { 17.266899, 11.4, 0.0, lc };
Point(94) = { 17.266899, 11.4, 0.9, lc };
Point(95) = { 15.466899, 11.4, 0.9, lc };
Point(96) = { 8.749634, 11.4, 0.0, lc };
Point(97) = { 14.366899, 11.4, 0.0, lc };
Point(98) = { 15.466899, 10.75, 0.0, lc };
Point(99) = { 17.266899, 10.75, 0.0, lc };
Point(100) = { 17.6, 6.4, 0.0, lc };
Point(101) = { 14.366899, 5.3, 0.0, lc };
Point(102) = { 14.366899, 5.2, 0.0, lc };
Point(103) = { 17.15, 5.2, 0.0, lc };
Point(104) = { 17.15, 6.3, 0.0, lc };
Point(105) = { 18.25, 6.3, 0.0, lc };
Point(106) = { 18.25, 5.3, 0.0, lc };
Point(107) = { 18.25, 0.0, 0.0, lc };
Point(108) = { 17.85, 0.0, 0.0, lc };
Point(109) = { 2.366899, 4.6, 0.0, lc };
Point(110) = { 2.366899, 9.85, 0.0, lc };
Point(111) = { 2.366899, 10.85, 0.0, lc };
Point(112) = { 2.366899, 11.4, 0.0, lc };
Point(113) = { 3.066899, 11.4, 0.0, lc };
Point(114) = { 14.466899, 7.625, 0.0, lc };
Point(115) = { 15.116899, 7.625, 0.0, lc };
Point(116) = { 15.116899, 9.875, 0.0, lc };
Point(117) = { 17.016899, 7.625, 0.0, lc };
Point(118) = { 17.016899, 9.475, 0.0, lc };
Point(119) = { 15.766899, 9.475, 0.0, lc };
Point(120) = { 15.766899, 7.625, 0.0, lc };
Point(121) = { 5.883333, 3.35, 0.0, lc };
Point(122) = { 5.883333, 2.95, 0.0, lc };
Point(123) = { 6.283333, 2.95, 0.0, lc };
Point(124) = { 6.283333, 3.35, 0.0, lc };
Point(125) = { 5.883333, 8.45, 0.0, lc };
Point(126) = { 5.883333, 8.05, 0.0, lc };
Point(127) = { 6.283333, 8.05, 0.0, lc };
Point(128) = { 6.283333, 8.45, 0.0, lc };
Point(129) = { 11.458752, 9.873833, 0.0, lc };
Point(130) = { 11.458752, 10.273833, 0.0, lc };
Point(131) = { 10.975909, 10.273833, 0.0, lc };
Point(132) = { 10.575909, 9.873833, 0.0, lc };
Point(133) = { 10.575909, 8.508148, 0.0, lc };
Point(134) = { 11.565858, 7.518198, 0.0, lc };
Point(135) = { 11.565858, 5.818198, 0.0, lc };
Point(136) = { 11.884056, 5.5, 0.0, lc };
Point(137) = { 12.284056, 5.1, 0.0, lc };
Point(138) = { 13.066899, 5.1, 0.0, lc };
Point(139) = { 13.066899, 5.5, 0.0, lc };
Point(140) = { 12.449742, 5.5, 0.0, lc };
Point(141) = { 11.965858, 5.983883, 0.0, lc };
Point(142) = { 11.965858, 7.601041, 0.0, lc };
Point(143) = { 11.965858, 7.683883, 0.0, lc };
Point(144) = { 10.975909, 8.673833, 0.0, lc };
Point(145) = { 10.975909, 9.708148, 0.0, lc };
Point(146) = { 11.141594, 9.873833, 0.0, lc };
Point(147) = { 11.966667, 3.35, 0.0, lc };
Point(148) = { 11.966667, 2.95, 0.0, lc };
Point(149) = { 12.366667, 2.95, 0.0, lc };
Point(150) = { 12.366667, 3.35, 0.0, lc };
Point(151) = { 11.966667, 8.45, 0.0, lc };
Point(152) = { 11.966667, 8.05, 0.0, lc };
Point(153) = { 12.366667, 8.05, 0.0, lc };
Point(154) = { 12.366667, 8.45, 0.0, lc };
Point(155) = { 14.366899, 5.3, 2.53, lc };
Point(156) = { 14.366899, 5.2, 2.53, lc };
Point(157) = { 17.15, 6.3, 2.53, lc };
Point(158) = { 18.25, 6.3, 2.53, lc };
Point(159) = { 18.25, 6.3, 2.384386, lc };
Point(160) = { 18.25, 6.4, 2.53, lc };
Point(161) = { 18.25, 6.4, 0.9, lc };
Point(162) = { 17.15, 5.2, 2.53, lc };
Point(163) = { 0.0, 0.0, 2.53, lc };
Point(164) = { 7.749634, 11.4, 2.53, lc };
Point(165) = { 17.6, 6.4, 0.9, lc };
Point(166) = { 2.366899, 10.85, 0.951097, lc };
Point(167) = { 2.366899, 10.85, 1.0, lc };
Point(168) = { 2.366899, 11.4, 1.0, lc };
Point(169) = { 17.85, 0.0, 1.0, lc };
Point(170) = { 0.0, 3.7, 2.2, lc };
Point(171) = { 17.85, 0.0, 2.53, lc };
Point(172) = { 11.458752, 10.273833, 1.1, lc };
Point(173) = { 11.458752, 9.873833, 1.1, lc };
Point(174) = { 11.141594, 9.873833, 1.1, lc };
Point(175) = { 10.975909, 9.708148, 1.1, lc };
Point(176) = { 10.975909, 8.673833, 1.1, lc };
Point(177) = { 11.965858, 7.683883, 1.1, lc };
Point(178) = { 11.965858, 7.601041, 1.1, lc };
Point(179) = { 11.965858, 5.983883, 1.1, lc };
Point(180) = { 12.449742, 5.5, 1.1, lc };
Point(181) = { 13.066899, 5.5, 1.1, lc };
Point(182) = { 13.066899, 5.1, 1.1, lc };
Point(183) = { 12.284056, 5.1, 1.1, lc };
Point(184) = { 11.884056, 5.5, 1.1, lc };
Point(185) = { 11.565858, 5.818198, 1.1, lc };
Point(186) = { 11.565858, 7.518198, 1.1, lc };
Point(187) = { 10.575909, 8.508148, 1.1, lc };
Point(188) = { 10.575909, 9.873833, 1.1, lc };
Point(189) = { 10.975909, 10.273833, 1.1, lc };
Point(190) = { 6.283333, 3.35, 2.53, lc };
Point(191) = { 6.283333, 2.95, 2.53, lc };
Point(192) = { 17.266899, 10.75, 0.9, lc };
Point(193) = { 15.766899, 7.625, 0.9, lc };
Point(194) = { 15.766899, 9.475, 0.9, lc };
Point(195) = { 17.016899, 9.475, 0.9, lc };
Point(196) = { 17.016899, 7.625, 0.9, lc };
Point(197) = { 5.883333, 2.95, 2.53, lc };
Point(198) = { 5.883333, 3.35, 2.53, lc };
Point(199) = { 5.566899, 11.4, 2.53, lc };
Point(200) = { 3.066899, 11.4, 2.53, lc };
Point(201) = { 2.366899, 11.4, 2.53, lc };
Point(202) = { 2.366899, 10.85, 2.53, lc };
Point(203) = { 2.366899, 9.85, 2.53, lc };
Point(204) = { 5.883333, 8.45, 2.53, lc };
Point(205) = { 6.283333, 8.45, 2.53, lc };
Point(206) = { 6.283333, 8.05, 2.53, lc };
Point(207) = { 5.883333, 8.05, 2.53, lc };
Point(208) = { 11.966667, 3.35, 2.53, lc };
Point(209) = { 12.366667, 3.35, 2.53, lc };
Point(210) = { 12.366667, 2.95, 2.53, lc };
Point(211) = { 11.966667, 2.95, 2.53, lc };
Point(212) = { 11.966667, 8.45, 2.53, lc };
Point(213) = { 12.366667, 8.45, 2.53, lc };
Point(214) = { 12.366667, 8.05, 2.53, lc };
Point(215) = { 11.966667, 8.05, 2.53, lc };
Point(216) = { 14.466899, 7.625, 1.8, lc };
Point(217) = { 15.116899, 9.875, 1.8, lc };
Point(218) = { 15.116899, 7.625, 1.8, lc };
Point(219) = { 2.366899, 9.85, 2.384386, lc };
Point(220) = { 2.366899, 9.85, 1.0, lc };
Point(221) = { 3.066899, 11.4, 0.951097, lc };
Point(222) = { 3.066899, 11.4, 1.0, lc };
Point(223) = { 2.366899, 9.85, 0.951097, lc };
Point(224) = { 15.466899, 10.75, 0.9, lc };
Point(225) = { 2.366899, 10.85, 2.384386, lc };
Line(1) = { 1, 2 };
Line(2) = { 2, 3 };
Line(3) = { 3, 4 };
Line(4) = { 4, 5 };
Line(5) = { 5, 6 };
Line(6) = { 6, 7 };
Line(7) = { 7, 8 };
Line(8) = { 1, 8 };
Line(9) = { 9, 10 };
Line(10) = { 10, 11 };
Line(11) = { 11, 12 };
Line(12) = { 12, 13 };
Line(13) = { 13, 14 };
Line(14) = { 14, 15 };
Line(15) = { 15, 16 };
Line(16) = { 9, 16 };
Line(17) = { 17, 18 };
Line(18) = { 18, 19 };
Line(19) = { 19, 20 };
Line(20) = { 17, 20 };
Line(21) = { 21, 22 };
Line(22) = { 22, 23 };
Line(23) = { 23, 24 };
Line(24) = { 24, 25 };
Line(25) = { 21, 25 };
Line(26) = { 26, 27 };
Line(27) = { 27, 28 };
Line(28) = { 28, 29 };
Line(29) = { 29, 30 };
Line(30) = { 26, 30 };
Line(31) = { 11, 14 };
Line(32) = { 10, 31 };
Line(33) = { 31, 32 };
Line(34) = { 15, 32 };
Line(35) = { 1, 9 };
Line(36) = { 8, 33 };
Line(37) = { 31, 33 };
Line(38) = { 3, 34 };
Line(39) = { 2, 35 };
Line(40) = { 19, 35 };
Line(41) = { 18, 34 };
Line(42) = { 36, 37 };
Line(43) = { 37, 38 };
Line(44) = { 38, 39 };
Line(45) = { 36, 39 };
Line(46) = { 40, 41 };
Line(47) = { 41, 42 };
Line(48) = { 42, 43 };
Line(49) = { 40, 43 };
Line(50) = { 37, 42 };
Line(51) = { 36, 44 };
Line(52) = { 43, 44 };
Line(53) = { 45, 46 };
Line(54) = { 46, 47 };
Line(55) = { 47, 48 };
Line(56) = { 45, 48 };
Line(57) = { 49, 50 };
Line(58) = { 50, 51 };
Line(59) = { 51, 52 };
Line(60) = { 52, 53 };
Line(61) = { 53, 54 };
Line(62) = { 54, 55 };
Line(63) = { 55, 56 };
Line(64) = { 56, 57 };
Line(65) = { 57, 58 };
Line(66) = { 58, 59 };
Line(67) = { 59, 60 };
Line(68) = { 49, 60 };
Line(69) = { 61, 62 };
Line(70) = { 62, 63 };
Line(71) = { 63, 64 };
Line(72) = { 61, 64 };
Line(73) = { 65, 66 };
Line(74) = { 66, 67 };
Line(75) = { 67, 68 };
Line(76) = { 65, 68 };
Line(77) = { 69, 70 };
Line(78) = { 70, 71 };
Line(79) = { 71, 72 };
Line(80) = { 69, 72 };
Line(81) = { 39, 73 };
Line(82) = { 44, 73 };
Line(83) = { 40, 73 };
Line(84) = { 74, 75 };
Line(85) = { 75, 76 };
Line(86) = { 76, 77 };
Line(87) = { 77, 78 };
Line(88) = { 74, 78 };
Line(89) = { 79, 80 };
Line(90) = { 80, 81 };
Line(91) = { 81, 82 };
Line(92) = { 82, 83 };
Line(93) = { 79, 83 };
Line(94) = { 20, 45 };
Line(95) = { 48, 84 };
Line(96) = { 76, 84 };
Line(97) = { 76, 85 };
Line(98) = { 17, 85 };
Line(99) = { 86, 87 };
Line(100) = { 87, 88 };
Line(101) = { 88, 89 };
Line(102) = { 89, 90 };
Line(103) = { 90, 91 };
Line(104) = { 91, 92 };
Line(105) = { 92, 93 };
Line(106) = { 93, 94 };
Line(107) = { 94, 95 };
Line(108) = { 86, 95 };
Line(109) = { 96, 97 };
Line(110) = { 87, 97 };
Line(111) = { 86, 98 };
Line(112) = { 98, 99 };
Line(113) = { 93, 99 };
Line(114) = { 92, 100 };
Line(115) = { 67, 100 };
Line(116) = { 66, 101 };
Line(117) = { 101, 102 };
Line(118) = { 102, 103 };
Line(119) = { 103, 104 };
Line(120) = { 104, 105 };
Line(121) = { 105, 106 };
Line(122) = { 106, 107 };
Line(123) = { 107, 108 };
Line(124) = { 32, 108 };
Line(125) = { 33, 34 };
Line(126) = { 85, 109 };
Line(127) = { 109, 110 };
Line(128) = { 110, 111 };
Line(129) = { 111, 112 };
Line(130) = { 112, 113 };
Line(131) = { 80, 113 };
Line(132) = { 79, 96 };
Line(133) = { 21, 63 };
Line(134) = { 62, 114 };
Line(135) = { 114, 115 };
Line(136) = { 115, 116 };
Line(137) = { 22, 116 };
Line(138) = { 38, 41 };
Line(139) = { 117, 118 };
Line(140) = { 118, 119 };
Line(141) = { 119, 120 };
Line(142) = { 117, 120 };
Line(143) = { 121, 122 };
Line(144) = { 122, 123 };
Line(145) = { 123, 124 };
Line(146) = { 121, 124 };
Line(147) = { 125, 126 };
Line(148) = { 126, 127 };
Line(149) = { 127, 128 };
Line(150) = { 125, 128 };
Line(151) = { 129, 130 };
Line(152) = { 130, 131 };
Line(153) = { 131, 132 };
Line(154) = { 132, 133 };
Line(155) = { 133, 134 };
Line(156) = { 134, 135 };
Line(157) = { 135, 136 };
Line(158) = { 136, 137 };
Line(159) = { 137, 138 };
Line(160) = { 138, 139 };
Line(161) = { 139, 140 };
Line(162) = { 140, 141 };
Line(163) = { 141, 142 };
Line(164) = { 142, 143 };
Line(165) = { 143, 144 };
Line(166) = { 144, 145 };
Line(167) = { 145, 146 };
Line(168) = { 129, 146 };
Line(169) = { 147, 148 };
Line(170) = { 148, 149 };
Line(171) = { 149, 150 };
Line(172) = { 147, 150 };
Line(173) = { 151, 152 };
Line(174) = { 152, 153 };
Line(175) = { 153, 154 };
Line(176) = { 151, 154 };
Line(177) = { 101, 155 };
Line(178) = { 155, 156 };
Line(179) = { 102, 156 };
Line(180) = { 104, 157 };
Line(181) = { 157, 158 };
Line(182) = { 158, 159 };
Line(183) = { 105, 159 };
Line(184) = { 4, 7 };
Line(185) = { 89, 160 };
Line(186) = { 160, 161 };
Line(187) = { 90, 161 };
Line(188) = { 103, 162 };
Line(189) = { 157, 162 };
Line(190) = { 35, 163 };
Line(191) = { 20, 163 };
Line(192) = { 83, 164 };
Line(193) = { 51, 164 };
Line(194) = { 50, 96 };
Line(195) = { 54, 57 };
Line(196) = { 25, 64 };
Line(197) = { 91, 165 };
Line(198) = { 161, 165 };
Line(199) = { 49, 58 };
Line(200) = { 53, 97 };
Line(201) = { 100, 165 };
Line(202) = { 68, 160 };
Line(203) = { 111, 166 };
Line(204) = { 166, 167 };
Line(205) = { 167, 168 };
Line(206) = { 112, 168 };
Line(207) = { 27, 107 };
Line(208) = { 27, 169 };
Line(209) = { 108, 169 };
Line(210) = { 78, 163 };
Line(211) = { 77, 170 };
Line(212) = { 84, 170 };
Line(213) = { 30, 158 };
Line(214) = { 28, 106 };
Line(215) = { 156, 162 };
Line(216) = { 75, 109 };
Line(217) = { 65, 155 };
Line(218) = { 169, 171 };
Line(219) = { 26, 171 };
Line(220) = { 52, 88 };
Line(221) = { 172, 173 };
Line(222) = { 173, 174 };
Line(223) = { 174, 175 };
Line(224) = { 175, 176 };
Line(225) = { 176, 177 };
Line(226) = { 177, 178 };
Line(227) = { 178, 179 };
Line(228) = { 179, 180 };
Line(229) = { 180, 181 };
Line(230) = { 181, 182 };
Line(231) = { 182, 183 };
Line(232) = { 183, 184 };
Line(233) = { 184, 185 };
Line(234) = { 185, 186 };
Line(235) = { 186, 187 };
Line(236) = { 187, 188 };
Line(237) = { 188, 189 };
Line(238) = { 172, 189 };
Line(239) = { 138, 182 };
Line(240) = { 139, 181 };
Line(241) = { 140, 180 };
Line(242) = { 124, 190 };
Line(243) = { 123, 191 };
Line(244) = { 190, 191 };
Line(245) = { 135, 185 };
Line(246) = { 136, 184 };
Line(247) = { 99, 192 };
Line(248) = { 94, 192 };
Line(249) = { 193, 194 };
Line(250) = { 194, 195 };
Line(251) = { 195, 196 };
Line(252) = { 193, 196 };
Line(253) = { 122, 197 };
Line(254) = { 121, 198 };
Line(255) = { 197, 198 };
Line(256) = { 141, 179 };
Line(257) = { 142, 178 };
Line(258) = { 143, 177 };
Line(259) = { 16, 171 };
Line(260) = { 164, 199 };
Line(261) = { 199, 200 };
Line(262) = { 200, 201 };
Line(263) = { 201, 202 };
Line(264) = { 202, 203 };
Line(265) = { 74, 203 };
Line(266) = { 24, 61 };
Line(267) = { 190, 198 };
Line(268) = { 191, 197 };
Line(269) = { 204, 205 };
Line(270) = { 205, 206 };
Line(271) = { 206, 207 };
Line(272) = { 204, 207 };
Line(273) = { 208, 209 };
Line(274) = { 209, 210 };
Line(275) = { 210, 211 };
Line(276) = { 208, 211 };
Line(277) = { 212, 213 };
Line(278) = { 213, 214 };
Line(279) = { 214, 215 };
Line(280) = { 212, 215 };
Line(281) = { 23, 216 };
Line(282) = { 23, 217 };
Line(283) = { 217, 218 };
Line(284) = { 216, 218 };
Line(285) = { 116, 217 };
Line(286) = { 115, 218 };
Line(287) = { 126, 207 };
Line(288) = { 125, 204 };
Line(289) = { 132, 188 };
Line(290) = { 133, 187 };
Line(291) = { 203, 219 };
Line(292) = { 219, 220 };
Line(293) = { 75, 220 };
Line(294) = { 130, 172 };
Line(295) = { 131, 189 };
Line(296) = { 82, 199 };
Line(297) = { 148, 211 };
Line(298) = { 147, 208 };
Line(299) = { 113, 221 };
Line(300) = { 221, 222 };
Line(301) = { 200, 222 };
Line(302) = { 220, 223 };
Line(303) = { 110, 223 };
Line(304) = { 114, 216 };
Line(305) = { 192, 224 };
Line(306) = { 95, 224 };
Line(307) = { 119, 194 };
Line(308) = { 120, 193 };
Line(309) = { 98, 224 };
Line(310) = { 118, 195 };
Line(311) = { 168, 222 };
Line(312) = { 128, 205 };
Line(313) = { 127, 206 };
Line(314) = { 146, 174 };
Line(315) = { 129, 173 };
Line(316) = { 117, 196 };
Line(317) = { 150, 209 };
Line(318) = { 149, 210 };
Line(319) = { 154, 213 };
Line(320) = { 151, 212 };
Line(321) = { 134, 186 };
Line(322) = { 152, 215 };
Line(323) = { 202, 225 };
Line(324) = { 167, 225 };
Line(325) = { 137, 183 };
Line(326) = { 144, 176 };
Line(327) = { 145, 175 };
Line(328) = { 168, 201 };
Line(329) = { 153, 214 };
Line Loop(1) = { 1, 2, 3, 4, 5, 6, 7, -8 };
Line Loop(2) = { 9, 10, 11, 12, 13, 14, 15, -16 };
Line Loop(3) = { 17, 18, 19, -20 };
Line Loop(4) = { 21, 22, 23, 24, -25 };
Line Loop(5) = { 26, 27, 28, 29, -30 };
Line Loop(6) = { -14, -31, -10, 32, 33, -34 };
Line Loop(7) = { -32, -9, -35, 8, 36, -37 };
Line Loop(8) = { -38, -2, 39, -40, -18, 41 };
Line Loop(9) = { 42, 43, 44, -45 };
Line Loop(10) = { 46, 47, 48, -49 };
Line Loop(11) = { -48, -50, -42, 51, -52 };
Line Loop(12) = { 53, 54, 55, -56 };
Line Loop(13) = { 57, 58, 59, 60, 61, 62, 63, 64, 65, 66, 67, -68 };
Line Loop(14) = { 69, 70, 71, -72 };
Line Loop(15) = { 73, 74, 75, -76 };
Line Loop(16) = { 77, 78, 79, -80 };
Line Loop(17) = { 81, -82, -51, 45 };
Line Loop(18) = { -83, 49, 52, 82 };
Line Loop(19) = { 84, 85, 86, 87, -88 };
Line Loop(20) = { 89, 90, 91, 92, -93 };
Line Loop(21) = { 20, 94, 56, 95, -96, 97, -98 };
Line Loop(22) = { 99, 100, 101, 102, 103, 104, 105, 106, 107, -108 };
Line Loop(23) = { -77, 80, -79, -78 };
Line Loop(24) = { 109, -110, -99, 111, 112, -113, -105, 114, -115, -74, 116, 117, 118, 119, 120, 121, 122, 123, -124, -33, 37, 125, -41, -17, 98, 126, 127, 128, 129, 130, -131, -89, 132 };
Line Loop(25) = { -21, 133, -70, 134, 135, 136, -137 };
Line Loop(26) = { -46, 83, -81, -44, 138 };
Line Loop(27) = { 139, 140, 141, -142 };
Line Loop(28) = { 143, 144, 145, -146 };
Line Loop(29) = { 147, 148, 149, -150 };
Line Loop(30) = { 151, 152, 153, 154, 155, 156, 157, 158, 159, 160, 161, 162, 163, 164, 165, 166, 167, -168 };
Line Loop(31) = { 169, 170, 171, -172 };
Line Loop(32) = { 173, 174, 175, -176 };
Line Loop(33) = { -117, 177, 178, -179 };
Line Loop(34) = { -120, 180, 181, 182, -183 };
Line Loop(35) = { -36, -7, -184, -3, 38, -125 };
Line Loop(36) = { -102, 185, 186, -187 };
Line Loop(37) = { -180, -119, 188, -189 };
Line Loop(38) = { -19, 40, 190, -191 };
Line Loop(39) = { 93, 192, -193, -58, 194, -132 };
Line Loop(40) = { -62, 195, -64, -63 };
Line Loop(41) = { 196, -71, -133, 25 };
Line Loop(42) = { -197, -103, 187, 198 };
Line Loop(43) = { -109, -194, -57, 199, -65, -195, -61, 200 };
Line Loop(44) = { -114, -104, 197, -201 };
Line Loop(45) = { -75, 115, 201, -198, -186, -202 };
Line Loop(46) = { -129, 203, 204, 205, -206 };
Line Loop(47) = { -207, 208, -209, -123 };
Line Loop(48) = { 191, -210, -87, 211, -212, -95, -55, -54, -53, -94 };
Line Loop(49) = { -182, -213, -29, -28, 214, -121, 183 };
Line Loop(50) = { -188, -118, 179, 215 };
Line Loop(51) = { -97, -85, 216, -126 };
Line Loop(52) = { -122, -214, -27, 207 };
Line Loop(53) = { -116, -73, 217, -177 };
Line Loop(54) = { -218, -208, -26, 219 };
Line Loop(55) = { -200, -60, 220, -100, 110 };
Line Loop(56) = { -138, -43, 50, -47 };
Line Loop(57) = { 221, 222, 223, 224, 225, 226, 227, 228, 229, 230, 231, 232, 233, 234, 235, 236, 237, -238 };
Line Loop(58) = { -160, 239, -230, -240 };
Line Loop(59) = { -161, 240, -229, -241 };
Line Loop(60) = { -242, -145, 243, -244 };
Line Loop(61) = { -157, 245, -233, -246 };
Line Loop(62) = { 113, 247, -248, -106 };
Line Loop(63) = { -6, -5, -4, 184 };
Line Loop(64) = { 249, 250, 251, -252 };
Line Loop(65) = { -253, -143, 254, -255 };
Line Loop(66) = { -162, 241, -228, -256 };
Line Loop(67) = { -164, 257, -226, -258 };
Line Loop(68) = { 259, -219, 30, 213, -181, 189, -215, -178, -217, 76, 202, -185, -101, -220, -59, 193, 260, 261, 262, 263, 264, -265, 88, 210, -190, -39, -1, 35, 16 };
Line Loop(69) = { 72, -196, -24, 266 };
Line Loop(70) = { -267, 244, 268, 255 };
Line Loop(71) = { 269, 270, 271, -272 };
Line Loop(72) = { 273, 274, 275, -276 };
Line Loop(73) = { 277, 278, 279, -280 };
Line Loop(74) = { -281, 282, 283, -284 };
Line Loop(75) = { 137, 285, -282, -22 };
Line Loop(76) = { -136, 286, -283, -285 };
Line Loop(77) = { -287, -147, 288, 272 };
Line Loop(78) = { 209, 218, -259, -15, 34, 124 };
Line Loop(79) = { -154, 289, -236, -290 };
Line Loop(80) = { 265, 291, 292, -293, -84 };
Line Loop(81) = { -152, 294, 238, -295 };
Line Loop(82) = { -192, -92, 296, -260 };
Line Loop(83) = { -297, -169, 298, 276 };
Line Loop(84) = { -90, 131, 299, 300, -301, -261, -296, -91 };
Line Loop(85) = { 293, 302, -303, -127, -216 };
Line Loop(86) = { -135, 304, 284, -286 };
Line Loop(87) = { -163, 256, -227, -257 };
Line Loop(88) = { 248, 305, -306, -107 };
Line Loop(89) = { -141, 307, -249, -308 };
Line Loop(90) = { -111, 108, 306, -309 };
Line Loop(91) = { -140, 310, -250, -307 };
Line Loop(92) = { 311, -300, -299, -130, 206 };
Line Loop(93) = { -312, -149, 313, -270 };
Line Loop(94) = { -144, 253, -268, -243 };
Line Loop(95) = { 168, 314, -222, -315 };
Line Loop(96) = { -139, 316, -251, -310 };
Line Loop(97) = { -317, -171, 318, -274 };
Line Loop(98) = { 176, 319, -277, -320 };
Line Loop(99) = { -148, 287, -271, -313 };
Line Loop(100) = { -155, 290, -235, -321 };
Line Loop(101) = { 150, 312, -269, -288 };
Line Loop(102) = { -322, -173, 320, 280 };
Line Loop(103) = { 212, -211, -86, 96 };
Line Loop(104) = { -112, 309, -305, -247 };
Line Loop(105) = { 142, 308, 252, -316 };
Line Loop(106) = { 323, -324, -204, -203, -128, 303, -302, -292, -291, -264 };
Line Loop(107) = { -13, -12, -11, 31 };
Line Loop(108) = { -266, -23, 281, -304, -134, -69 };
Line Loop(109) = { -153, 295, -237, -289 };
Line Loop(110) = { -159, 325, -231, -239 };
Line Loop(111) = { -166, 326, -224, -327 };
Line Loop(112) = { -158, 246, -232, -325 };
Line Loop(113) = { -156, 321, -234, -245 };
Line Loop(114) = { -262, 301, -311, 328 };
Line Loop(115) = { 146, 242, 267, -254 };
Line Loop(116) = { -170, 297, -275, -318 };
Line Loop(117) = { 172, 317, -273, -298 };
Line Loop(118) = { -319, -175, 329, -278 };
Line Loop(119) = { -151, 315, -221, -294 };
Line Loop(120) = { -174, 322, -279, -329 };
Line Loop(121) = { -66, -199, 68, -67 };
Line Loop(122) = { -205, 324, -323, -263, -328 };
Line Loop(123) = { -167, 327, -223, -314 };
Line Loop(124) = { -165, 258, -225, -326 };
Plane Surface(1) = { 1 };
Plane Surface(2) = { 2 };
Plane Surface(3) = { 3 };
Plane Surface(4) = { 4 };
Plane Surface(5) = { 5 };
Plane Surface(6) = { 6 };
Plane Surface(7) = { 7 };
Plane Surface(8) = { 8 };
Plane Surface(9) = { 9 };
Plane Surface(10) = { 10 };
Plane Surface(11) = { 11 };
Plane Surface(12) = { 12 };
Plane Surface(13) = { 13 };
Plane Surface(14) = { 14 };
Plane Surface(15) = { 15 };
Plane Surface(16) = { 16 };
Plane Surface(17) = { 17 };
Plane Surface(18) = { 18 };
Plane Surface(19) = { 19 };
Plane Surface(20) = { 20 };
Plane Surface(21) = { 21 };
Plane Surface(22) = { 22, 23 };
Plane Surface(23) = { 24, 25, 26, 27, 28, 29, 30, 31, 32 };
Plane Surface(24) = { 33 };
Plane Surface(25) = { 34 };
Plane Surface(26) = { 35 };
Plane Surface(27) = { 36 };
Plane Surface(28) = { 37 };
Plane Surface(29) = { 38 };
Plane Surface(30) = { 39 };
Plane Surface(31) = { 40 };
Plane Surface(32) = { 41 };
Plane Surface(33) = { 42 };
Plane Surface(34) = { 43 };
Plane Surface(35) = { 44 };
Plane Surface(36) = { 45 };
Plane Surface(37) = { 46 };
Plane Surface(38) = { 47 };
Plane Surface(39) = { 48 };
Plane Surface(40) = { 49 };
Plane Surface(41) = { 50 };
Plane Surface(42) = { 51 };
Plane Surface(43) = { 52 };
Plane Surface(44) = { 53 };
Plane Surface(45) = { 54 };
Plane Surface(46) = { 55 };
Plane Surface(47) = { 56 };
Plane Surface(48) = { 57 };
Plane Surface(49) = { 58 };
Plane Surface(50) = { 59 };
Plane Surface(51) = { 60 };
Plane Surface(52) = { 61 };
Plane Surface(53) = { 62 };
Plane Surface(54) = { 63 };
Plane Surface(55) = { 64 };
Plane Surface(56) = { 65 };
Plane Surface(57) = { 66 };
Plane Surface(58) = { 67 };
Plane Surface(59) = { 68, 69, 70, 71, 72, 73 };
Plane Surface(60) = { 74 };
Plane Surface(61) = { 75 };
Plane Surface(62) = { 76 };
Plane Surface(63) = { 77 };
Plane Surface(64) = { 78 };
Plane Surface(65) = { 79 };
Plane Surface(66) = { 80 };
Plane Surface(67) = { 81 };
Plane Surface(68) = { 82 };
Plane Surface(69) = { 83 };
Plane Surface(70) = { 84 };
Plane Surface(71) = { 85 };
Plane Surface(72) = { 86 };
Plane Surface(73) = { 87 };
Plane Surface(74) = { 88 };
Plane Surface(75) = { 89 };
Plane Surface(76) = { 90 };
Plane Surface(77) = { 91 };
Plane Surface(78) = { 92 };
Plane Surface(79) = { 93 };
Plane Surface(80) = { 94 };
Plane Surface(81) = { 95 };
Plane Surface(82) = { 96 };
Plane Surface(83) = { 97 };
Plane Surface(84) = { 98 };
Plane Surface(85) = { 99 };
Plane Surface(86) = { 100 };
Plane Surface(87) = { 101 };
Plane Surface(88) = { 102 };
Plane Surface(89) = { 103 };
Plane Surface(90) = { 104 };
Plane Surface(91) = { 105 };
Plane Surface(92) = { 106 };
Plane Surface(93) = { 107 };
Plane Surface(94) = { 108 };
Plane Surface(95) = { 109 };
Plane Surface(96) = { 110 };
Plane Surface(97) = { 111 };
Plane Surface(98) = { 112 };
Plane Surface(99) = { 113 };
Plane Surface(100) = { 114 };
Plane Surface(101) = { 115 };
Plane Surface(102) = { 116 };
Plane Surface(103) = { 117 };
Plane Surface(104) = { 118 };
Plane Surface(105) = { 119 };
Plane Surface(106) = { 120 };
Plane Surface(107) = { 121 };
Plane Surface(108) = { 122 };
Plane Surface(109) = { 123 };
Plane Surface(110) = { 124 };
Surface Loop(1) = { 1, 2, 3, 4, 5, 6, 7, 8, 9, 10, 11, 12, 13, 14, 15, 16, 17, 18, 19, 20, 21, 22, 23, 24, 25, 26, 27, 28, 29, 30, 31, 32, 33, 34, 35, 36, 37, 38, 39, 40, 41, 42, 43, 44, 45, 46, 47, 48, 49, 50, 51, 52, 53, 54, 55, 56, 57, 58, 59, 60, 61, 62, 63, 64, 65, 66, 67, 68, 69, 70, 71, 72, 73, 74, 75, 76, 77, 78, 79, 80, 81, 82, 83, 84, 85, 86, 87, 88, 89, 90, 91, 92, 93, 94, 95, 96, 97, 98, 99, 100, 101, 102, 103, 104, 105, 106, 107, 108, 109, 110 };
Physical Surface(11) = { 1, 2, 3, 4, 5, 6, 7, 8, 9, 10, 11, 12, 13, 14, 15, 16, 17, 18, 19, 20, 21, 22, 23, 24, 25, 26, 27, 28, 29, 30, 31, 32, 33, 34, 35, 36, 37, 38, 39, 40, 41, 42, 43, 44, 45, 46, 47, 48, 49, 50, 51, 52, 53, 54, 55, 56, 57, 58, 59, 60, 61, 62, 63, 64, 65, 66, 67, 68, 69, 70, 71, 72, 73, 74, 75, 76, 77, 78, 79, 80, 81, 82, 83, 84, 85, 86, 87, 88, 89, 90, 91, 92, 93, 94, 95, 96, 97, 98, 99, 100, 101, 102, 103, 104, 105, 106, 107, 108 };
Physical Surface(13) = { 109 };
Physical Surface(14) = { 110 };
Volume( 1 ) = { 1 };
Physical Volume(1) = { 1 };
//Physical Line ("default") = {1, 2, 3, 4, 5, 6, 7, 8, 9, 10, 11, 12, 13, 14, 15, 16, 17, 18, 19, 20, 21, 22, 23, 24, 25, 26, 27, 28, 29, 30, 31, 32, 33, 34, 35, 36, 37, 38, 39, 40, 41, 42, 43, 44, 45, 46, 47, 48, 49, 50, 51, 52, 53, 54, 55, 56, 57, 58, 59, 60, 61, 62, 63, 64, 65, 66, 67, 68, 69, 70, 71, 72, 73, 74, 75, 76, 77, 78, 79, 80, 81, 82, 83, 84, 85, 86, 87, 88, 89, 90, 91, 92, 93, 94, 95, 96, 97, 98, 99, 100, 101, 102, 103, 104, 105, 106, 107, 108, 109, 110, 111, 112, 113, 114, 115, 116, 117, 118, 119, 120, 121, 122, 123, 124, 125, 126, 127, 128, 129, 130, 131, 132, 133, 134, 135, 136, 137, 138, 139, 140, 141, 142, 143, 144, 145, 146, 147, 148, 149, 150, 151, 152, 153, 154, 155, 156, 157, 158, 159, 160, 161, 162, 163, 164, 165, 166, 167, 168, 169, 170, 171, 172, 173, 174, 175, 176, 177, 178, 179, 180, 181, 182, 183, 184, 185, 186, 187, 188, 189, 190, 191, 192, 193, 194, 195, 196, 197, 198, 199, 200, 201, 202, 203, 204, 205, 206, 207, 208, 209, 210, 211, 212, 213, 214, 215, 216, 217, 218, 219, 220, 221, 222, 223, 224, 225, 226, 227, 228, 229, 230, 231, 232, 233, 234, 235, 236, 237, 238, 239, 240, 241, 242, 243, 244, 245, 246, 247, 248, 249, 250, 251, 252, 253, 254, 255, 256, 257, 258, 259, 260, 261, 262, 263, 264, 265, 266, 267, 268, 269, 270, 271, 272, 273, 274, 275, 276, 277, 278, 279, 280, 281, 282, 283, 284, 285, 286, 287, 288, 289, 290, 291, 292, 293, 294, 295, 296, 297, 298, 299, 300, 301, 302, 303, 304, 305, 306, 307, 308, 309, 310, 311, 312, 313, 314, 315, 316, 317, 318, 319, 320, 321, 322, 323, 324, 325, 326, 327, 328, 329};
Mesh.Algorithm = 1;
Mesh.Algorithm3D = 1; // Delaunay3D, works for boundary layer insertion.
Mesh.Optimize = 1; // Gmsh smoother, works with boundary layers (netgen version does not).
Mesh.CharacteristicLengthFromPoints = 1;
// Recombine Surface "*";
//Mesh.RemeshAlgorithm = 1; // automatic

